<svg width="108" height="106" viewBox="0 0 108 106" fill="none" xmlns="http://www.w3.org/2000/svg">
<rect x="1.5" y="1.5" width="105" height="103" rx="51.5" fill="#D9D9D9"/>
<rect x="1.5" y="1.5" width="105" height="103" rx="51.5" stroke="#4D4D4C" stroke-width="3"/>
<path fill-rule="evenodd" clip-rule="evenodd" d="M70.2007 42.4C70.2007 51.1813 62.9477 58.3 54.0007 58.3C45.0536 58.3 37.8007 51.1813 37.8007 42.4C37.8007 33.6187 45.0536 26.5 54.0007 26.5C62.9477 26.5 70.2007 33.6187 70.2007 42.4ZM64.8007 42.4C64.8007 48.2542 59.9653 53 54.0007 53C48.036 53 43.2007 48.2542 43.2007 42.4C43.2007 36.5458 48.036 31.8 54.0007 31.8C59.9653 31.8 64.8007 36.5458 64.8007 42.4Z" fill="#4D4D4C"/>
<path d="M54.0007 66.25C36.5198 66.25 21.6257 76.3953 15.9521 90.6089C17.3343 91.9559 18.7902 93.2301 20.3135 94.425C24.5383 81.3754 37.7918 71.55 54.0007 71.55C70.2095 71.55 83.463 81.3754 87.6878 94.425C89.2111 93.2301 90.6671 91.956 92.0492 90.609C86.3757 76.3953 71.4815 66.25 54.0007 66.25Z" fill="#4D4D4C"/>
</svg>
