<?xml version="1.0" encoding="UTF-8"?>
<svg id="_Слой_2" data-name="Слой 2" xmlns="http://www.w3.org/2000/svg" viewBox="0 0 42.52 42.52">
  <defs>
    <style>
      .cls-1 {
        fill: #fff;
      }

      .cls-1, .cls-2 {
        fill-rule: evenodd;
      }

      .cls-2, .cls-3 {
        fill: #f9ca00;
      }

      .cls-4 {
        fill: #fac900;
      }
    </style>
  </defs>
  <g id="_Слой_1-2" data-name="Слой 1">
    <g>
      <path class="cls-4" d="M35.58,6.94C31.91,3.26,26.84.98,21.26.98S10.61,3.26,6.94,6.94C3.26,10.61.98,15.68.98,21.26s2.28,10.65,5.96,14.32c3.68,3.68,8.75,5.96,14.32,5.96s10.65-2.28,14.32-5.96c3.68-3.68,5.96-8.75,5.96-14.32s-2.28-10.65-5.96-14.32M21.26,0c5.85,0,11.16,2.39,15.02,6.24,3.85,3.85,6.24,9.17,6.24,15.02s-2.39,11.16-6.24,15.01c-3.85,3.85-9.17,6.24-15.02,6.24s-11.16-2.39-15.02-6.24c-3.85-3.85-6.24-9.17-6.24-15.01S2.39,10.1,6.24,6.24C10.1,2.39,15.41,0,21.26,0Z"/>
      <path class="cls-2" d="M34.06,24.88c.63.93.78,2.32.26,3.92-1.15,3.57-3.69,4.95-6.97,5.8-2.76.72-6.46.65-10.6-.16-1.79-1.18-3.13-1.71-4.02-1.57-1.22.1-1.84.05-1.86-.14.17-.86.26-1.66.27-2.4-2.77,0-4.3-.24-4.58-.72-.47-.54.41-1.71,2.64-3.51.08-3.84.71-7.5,1.91-10.98-.78-3.74-.6-6.1.53-7.07,1.13-.56,3.26.22,6.41,2.36,2.97-.6,5.2-.63,6.7-.08,2.05-1.69,4.97-3.12,6.04-2.92,1.89.36,1.89,3.53,1.01,7.17,1.33,2.01,1.95,3.97,1.87,5.88-.02,1.99.11,3.45.39,4.4"/>
      <path class="cls-1" d="M31.4,23.56c2.8.54,3.86,2.7,2.46,5.44-2.18,4.27-5.7,5.7-9.96,5.59-2.93.15-5.35-.47-7.25-1.85-1.96-1.51-2.63-3.02-2.01-4.52-.51-.18-.57-.71-.2-1.58.36-.92.89-1.53,1.59-1.83.5-.27.95-.53,1.36-.78-.51-4.29,1.11-7.14,2.3-7.07,1.76.1,2.54,2.08,2.45,5.01-.07,2.12.9,3.61,2.91,4.46,1.4,0,2.16-.92,2.29-2.77-.36-4.35,1.09-6.52,2.08-6.49,1.78.06,2.27,2.21,1.96,6.4"/>
      <path class="cls-1" d="M30.82,13.76c-1.26-.53-2.3-1.15-3.12-1.87,1.39-1.81,2.73-2.66,3.19-1.83.64,1.15.29,2.51-.08,3.7"/>
      <path class="cls-1" d="M17.14,11.66c-.86-.91-1.73-1.3-2.45-1.6-.71-.28-1.06-.18-1.12.71-.09,1.34.04,2.39.52,2.77,1.16-.41,2.27-1.17,3.05-1.89"/>
      <path class="cls-3" d="M20.78,27.8c-.08-.14-.03-.32.12-.4.14-.08.32-.03.4.12.42.77.91,1.41,1.45,1.89h0c.59.53,1.25.86,1.94.95.69.09,1.43-.05,2.2-.47.62-.34,1.27-.87,1.92-1.6.11-.12.29-.13.41-.02.12.11.13.29.02.42-.7.78-1.4,1.35-2.08,1.73-.88.49-1.75.65-2.56.54-.81-.11-1.57-.49-2.25-1.1h0c-.59-.53-1.12-1.22-1.57-2.04"/>
      <path class="cls-1" d="M11.47,25.63c-.16.02-.31-.09-.33-.25-.02-.16.09-.31.25-.33,1.12-.17,2.17-.15,3.15.04.98.19,1.88.57,2.71,1.12.13.09.17.27.08.41-.09.13-.27.17-.41.08-.76-.51-1.59-.85-2.49-1.03-.91-.18-1.89-.19-2.95-.03M11.5,25.79c-.12.02-.24-.02-.34-.09-.09-.07-.16-.18-.18-.3-.02-.12.02-.24.09-.34.07-.09.18-.16.3-.18.57-.08,1.12-.12,1.65-.12.54,0,1.05.06,1.55.16.5.1.98.24,1.44.43.46.19.9.43,1.33.71.1.07.17.18.19.29.02.11,0,.24-.07.34-.07.1-.18.17-.29.19-.11.02-.24,0-.34-.07-.37-.25-.76-.46-1.16-.62-.4-.17-.83-.29-1.27-.38-.45-.09-.91-.13-1.39-.14-.48,0-.98.03-1.51.11Z"/>
      <path class="cls-1" d="M11.76,29.65c-.12.11-.31.09-.41-.03-.11-.12-.09-.31.03-.41.56-.48,1.26-.78,2.1-.9.82-.12,1.77-.06,2.86.17.16.03.26.19.23.35-.03.16-.19.26-.35.23-1.02-.21-1.91-.27-2.66-.16-.73.1-1.33.36-1.8.76M11.86,29.78c-.1.08-.22.12-.33.11-.12,0-.23-.06-.31-.16-.08-.1-.12-.22-.11-.33,0-.12.06-.23.16-.31.29-.25.62-.45.99-.61.36-.16.76-.26,1.2-.32.42-.06.87-.07,1.36-.04.48.03,1,.1,1.56.22.12.03.22.1.29.2.06.1.09.22.07.34-.03.12-.1.22-.2.29-.1.06-.22.09-.34.07-.5-.11-.97-.17-1.41-.2-.43-.03-.83-.01-1.2.04-.35.05-.67.13-.96.26-.28.12-.54.28-.76.47Z"/>
      <path class="cls-2" d="M25.26,26.45c-1.09-.1-1.74-.78-2.16-1.99-.35-.99.24-1.35,1.99-1.38,1.5-.03,2.19.4,2.08,1.48-.09,1.04-.73,1.67-1.91,1.89"/>
      <path class="cls-2" d="M19.81,23.81c.42-.44.71-2.24.14-3.88-.23-.67-1.02-.62-1.29.1-.47,1.24-.15,3.45.2,3.8.31.4.62.39.94-.02"/>
      <path class="cls-2" d="M28.2,23.04c-.29-.92-.26-1.89.11-2.9.27-.62.46-.77.78-.74.77.08,1.02,1.45.91,2.71-.03,1.02-.32,1.6-.85,1.75-.4.14-.72-.13-.95-.82"/>
    </g>
  </g>
</svg>