<?xml version="1.0" encoding="UTF-8"?>
<svg id="_Слой_2" data-name="Слой 2" xmlns="http://www.w3.org/2000/svg" xmlns:xlink="http://www.w3.org/1999/xlink" viewBox="0 0 42.52 42.52">
  <defs>
    <style>
      .cls-1, .cls-2 {
        fill: #fff;
      }

      .cls-2, .cls-3 {
        fill-rule: evenodd;
      }

      .cls-4 {
        clip-rule: evenodd;
        fill: none;
      }

      .cls-3, .cls-5 {
        fill: #f9ca00;
      }

      .cls-6 {
        clip-path: url(#clippath);
      }
    </style>
    <clipPath id="clippath">
      <path class="cls-4" d="M25.84,37.53c2.52-.89,4.21-3.78,4.64-7.12.97-.25,1.59-.93,1.86-2.04.05-1.32-.49-2.3-1.62-2.94-.74-7.36-2.8-12.11-6.18-14.26.19-.97-.12-1.56-.94-1.76-.01-1.01.39-2.12,1.21-3.31.83-.63,1.03-1.37.28-1.73-.85-.41-1.36.23-1.34,1.36-.44.6-.95,1.74-1.55,3.4-.6-.1-1.03.22-1.27.97-1.45-.2-2.42.11-2.93.94-5.44,2.69-7.81,8.38-7.11,17.06-1.23.64-.86,5.43,1.21,7.34,1.94,1.79,4.65,2.34,7.04,2.63,2.19.27,4.02.39,6.7-.56"/>
    </clipPath>
  </defs>
  <g id="_Слой_1-2" data-name="Слой 1">
    <g>
      <path class="cls-5" d="M35.58,6.94C31.91,3.26,26.84.98,21.26.98S10.61,3.26,6.94,6.94C3.26,10.61.98,15.68.98,21.26s2.28,10.65,5.96,14.32c3.68,3.68,8.75,5.96,14.32,5.96s10.65-2.28,14.32-5.96c3.68-3.68,5.96-8.75,5.96-14.32s-2.28-10.65-5.96-14.32M21.26,0c5.85,0,11.16,2.39,15.02,6.24,3.85,3.85,6.24,9.17,6.24,15.02s-2.39,11.16-6.24,15.01c-3.85,3.85-9.17,6.24-15.02,6.24s-11.16-2.39-15.02-6.24c-3.85-3.85-6.24-9.17-6.24-15.01S2.39,10.1,6.24,6.24C10.1,2.39,15.41,0,21.26,0Z"/>
      <path class="cls-3" d="M25.84,37.53c2.52-.89,4.21-3.78,4.64-7.12.97-.25,1.59-.93,1.86-2.04.05-1.32-.49-2.3-1.62-2.94-.74-7.36-2.8-12.11-6.18-14.26.19-.97-.12-1.56-.94-1.76-.01-1.01.39-2.12,1.21-3.31.83-.63,1.03-1.37.28-1.73-.85-.41-1.36.23-1.34,1.36-.44.6-.95,1.74-1.55,3.4-.6-.1-1.03.22-1.27.97-1.45-.2-2.42.11-2.93.94-5.44,2.69-7.81,8.38-7.11,17.06-1.23.64-.86,5.43,1.21,7.34,1.94,1.79,4.65,2.34,7.04,2.63,2.19.27,4.02.39,6.7-.56"/>
      <g class="cls-6">
        <path class="cls-2" d="M29.81,20.7c-1.3-3.28-3.18-6.76-5.1-8.16-1.92-1.4-4.37-1.86-6.92-1.39l.19-.19c2.6-.47,4.88,0,6.84,1.43,1.95,1.43,3.71,4.63,5.02,7.95l-.03.37ZM10.88,28.11c-.6,2.25-.2,4.33.79,5.72,2.56,3.56,6.8,4.49,13.12,3.34,4.85-.89,6.55-6.26,5.05-16.83-.26,3.17,0,7.62-2.79,9.8-1.54,1.2-3.38,1.39-5.38.71-4.77-1.75-8.16-1.96-10.41-1.4-.4.1-.49-.63-.37-1.34Z"/>
        <path class="cls-1" d="M20.93,10.01c.68.1,1.32.24,1.93.42.61.18,1.18.39,1.72.65l.36.35c-.53-.25-1.53-.65-2.13-.82-.6-.17-1.92-.46-2.59-.56l.72-.04Z"/>
        <path class="cls-2" d="M21.55,10.21c.2-1.25,2.57-.7,1.97.53-.88-.29-1.49-.46-1.97-.53"/>
        <path class="cls-1" d="M23.12,8.41s-.04.04-.07.04c-.03,0-.04-.04-.03-.07.23-.68.45-1.25.66-1.71.21-.45.4-.79.59-1.03-.16-.34-.1-.69.29-.82.59-.2.71.83-.2.88-.18.23-.38.57-.58,1.01-.21.46-.43,1.02-.66,1.69"/>
      </g>
      <path class="cls-2" d="M17.53,16.59c1.95-.22,4.13.15,6.53,1.1-2.27-1.68-4.45-2.05-6.53-1.1"/>
      <path class="cls-2" d="M13.29,16.87c.8-.29,1.53-.31,2.2-.06-.57-.84-1.3-.82-2.2.06"/>
      <path class="cls-2" d="M21.5,17.72c-3.46-.38-5.01,2.12-4.67,7.51,2.8,1.04,5.26,1.25,7.4.63.85-4.82-.06-7.53-2.72-8.13"/>
      <path class="cls-2" d="M13.98,17.39c-1.03-.21-1.71,2.25-2.04,7.4.56.71,1.31.74,2.23.09.89-4.65.83-7.14-.18-7.49"/>
      <path class="cls-3" d="M14.44,21.08c-1.02-.04-1.18-.58-.48-1.64-1.1.21-1.78,1.12-1.19,2.47.46,1.06,1.29.66,1.67-.83"/>
      <path class="cls-3" d="M14.17,21.06c-.03.53-.47,1.05-.76.88-.72-.4-.59-1.47.24-1.99-.27.75-.14,1.03.53,1.11"/>
      <path class="cls-3" d="M21.08,19.63c.15,0,.29.02.43.05-.33.13-.57.46-.57.84,0,.5.4.9.9.9s.88-.38.9-.86c.19.3.3.66.3,1.04,0,1.08-.88,1.96-1.96,1.96s-1.96-.88-1.96-1.96.88-1.96,1.96-1.96"/>
      <path class="cls-3" d="M22.35,21.26c.03.11.04.22.04.33,0,.73-.59,1.32-1.32,1.32s-1.32-.59-1.32-1.32.54-1.26,1.22-1.32c-.02.08-.03.16-.03.24,0,.5.4.9.9.9.19,0,.37-.06.51-.16"/>
    </g>
  </g>
</svg>