<svg width="1102" height="158" viewBox="0 0 1102 158" fill="none" xmlns="http://www.w3.org/2000/svg">
<path d="M79 133C13.5 133 3 41.1667 0 0H1102.5C1105.5 48 1120 133 1087.5 133C1055 133 1061 85 1013 85C965 85 989.5 158 949.5 158C904.846 158 944 48 903 48C859.707 48 882.5 133 837.5 133C795.115 133 841 65 770 65C699 65 726.5 122 645.5 122C566.272 122 592 65 551.5 65C503.138 65 503.6 133 448 133C392.4 133 400.755 75.789 352 74.5C318.474 73.6137 335.5 26.5 305.5 26.5C236 26.5 264 85 245.5 88C227 91 245.359 48 217 48C186.5 48 235.404 133 184.5 133C141.135 133 209.5 26.5 159.5 26.5C112.732 26.5 154.541 133 79 133Z" fill="url(#paint0_linear_178_109)"/>
<defs>
<linearGradient id="paint0_linear_178_109" x1="574.75" y1="-18.5" x2="574.75" y2="158" gradientUnits="userSpaceOnUse">
<stop offset="0.0721154" stop-color="#1C556E"/>
<stop offset="1" stop-color="#05B9BE"/>
</linearGradient>
</defs>
</svg>
