<?xml version="1.0" encoding="UTF-8"?>
<svg id="_Слой_2" data-name="Слой 2" xmlns="http://www.w3.org/2000/svg" viewBox="0 0 42.52 42.52">
  <defs>
    <style>
      .cls-1 {
        fill: #f9ca00;
      }

      .cls-2 {
        fill: #fac900;
      }
    </style>
  </defs>
  <g id="_Слой_1-2" data-name="Слой 1">
    <g>
      <path class="cls-2" d="M35.58,6.94C31.91,3.26,26.84.98,21.26.98S10.61,3.26,6.94,6.94C3.26,10.61.98,15.68.98,21.26s2.28,10.65,5.96,14.32c3.68,3.68,8.75,5.96,14.32,5.96s10.65-2.28,14.32-5.96c3.68-3.68,5.96-8.75,5.96-14.32s-2.28-10.65-5.96-14.32M21.26,0c5.85,0,11.16,2.39,15.02,6.24,3.85,3.85,6.24,9.17,6.24,15.02s-2.39,11.16-6.24,15.01c-3.85,3.85-9.17,6.24-15.02,6.24s-11.16-2.39-15.02-6.24c-3.85-3.85-6.24-9.17-6.24-15.01S2.39,10.1,6.24,6.24C10.1,2.39,15.41,0,21.26,0Z"/>
      <path class="cls-1" d="M7.35,14.29c-.91,0-1.64.73-1.64,1.64v10.67c0,.91.73,1.64,1.64,1.64h27.82c.9,0,1.64-.73,1.64-1.64v-10.67c0-.91-.73-1.64-1.64-1.64H7.35M9.34,16.06h-1.46c-.15,0-.27.12-.27.27v1.02c0,.15.12.27.27.27h1.46c.15,0,.27-.12.27-.27v-1.02c0-.15-.12-.27-.27-.27ZM12.57,16.06h-1.46c-.15,0-.27.12-.27.27v1.02c0,.15.12.27.27.27h1.46c.15,0,.27-.12.27-.27v-1.02c0-.15-.12-.27-.27-.27ZM15.8,16.06h-1.46c-.15,0-.27.12-.27.27v1.02c0,.15.12.27.27.27h1.46c.15,0,.27-.12.27-.27v-1.02c0-.15-.12-.27-.27-.27ZM19.03,16.06h-1.46c-.15,0-.27.12-.27.27v1.02c0,.15.12.27.27.27h1.46c.15,0,.27-.12.27-.27v-1.02c0-.15-.12-.27-.27-.27ZM22.26,16.06h-1.46c-.15,0-.27.12-.27.27v1.02c0,.15.12.27.27.27h1.46c.15,0,.27-.12.27-.27v-1.02c0-.15-.12-.27-.27-.27ZM25.49,16.06h-1.46c-.15,0-.27.12-.27.27v1.02c0,.15.12.27.27.27h1.46c.15,0,.27-.12.27-.27v-1.02c0-.15-.12-.27-.27-.27ZM28.72,16.06h-1.46c-.15,0-.27.12-.27.27v1.02c0,.15.12.27.27.27h1.46c.15,0,.27-.12.27-.27v-1.02c0-.15-.12-.27-.27-.27ZM31.95,16.06h-1.46c-.15,0-.27.12-.27.27v1.02c0,.15.12.27.27.27h1.46c.15,0,.27-.12.27-.27v-1.02c0-.15-.12-.27-.27-.27ZM35.18,16.06h-1.46c-.15,0-.27.12-.27.27v1.02c0,.15.12.27.27.27h1.46c.15,0,.27-.12.27-.27v-1.02c0-.15-.12-.27-.27-.27ZM10.58,19.05h-2.7c-.15,0-.27.12-.27.27v1.02c0,.15.12.27.27.27h2.7c.15,0,.27-.12.27-.27v-1.02c0-.15-.12-.27-.27-.27ZM14.29,19.05h-1.46c-.15,0-.27.12-.27.27v1.02c0,.15.12.27.27.27h1.46c.15,0,.27-.12.27-.27v-1.02c0-.15-.12-.27-.27-.27ZM17.49,19.05h-1.46c-.15,0-.27.12-.27.27v1.02c0,.15.12.27.27.27h1.46c.15,0,.27-.12.27-.27v-1.02c0-.15-.12-.27-.27-.27ZM20.69,19.05h-1.46c-.15,0-.27.12-.27.27v1.02c0,.15.12.27.27.27h1.46c.15,0,.27-.12.27-.27v-1.02c0-.15-.12-.27-.27-.27ZM23.88,19.05h-1.46c-.15,0-.27.12-.27.27v1.02c0,.15.12.27.27.27h1.46c.15,0,.27-.12.27-.27v-1.02c0-.15-.12-.27-.27-.27ZM27.08,19.05h-1.46c-.15,0-.27.12-.27.27v1.02c0,.15.12.27.27.27h1.46c.15,0,.27-.12.27-.27v-1.02c0-.15-.12-.27-.27-.27ZM30.28,19.05h-1.46c-.15,0-.27.12-.27.27v1.02c0,.15.12.27.27.27h1.46c.15,0,.27-.12.27-.27v-1.02c0-.15-.12-.27-.27-.27ZM34.64,19.05h-2.7c-.15,0-.27.12-.27.27v1.02c0,.15.12.27.27.27h2.7c.15,0,.27-.12.27-.27v-1.02c0-.15-.12-.27-.27-.27ZM9.34,22.01h-1.46c-.15,0-.27.12-.27.27v1.02c0,.15.12.27.27.27h1.46c.15,0,.27-.12.27-.27v-1.02c0-.15-.12-.27-.27-.27ZM12.54,22.01h-1.46c-.15,0-.27.12-.27.27v1.02c0,.15.12.27.27.27h1.46c.15,0,.27-.12.27-.27v-1.02c0-.15-.12-.27-.27-.27ZM15.75,22.01h-1.46c-.15,0-.27.12-.27.27v1.02c0,.15.12.27.27.27h1.46c.15,0,.27-.12.27-.27v-1.02c0-.15-.12-.27-.27-.27ZM18.95,22.01h-1.46c-.15,0-.27.12-.27.27v1.02c0,.15.12.27.27.27h1.46c.15,0,.27-.12.27-.27v-1.02c0-.15-.12-.27-.27-.27ZM22.16,22.01h-1.46c-.15,0-.27.12-.27.27v1.02c0,.15.12.27.27.27h1.46c.15,0,.27-.12.27-.27v-1.02c0-.15-.12-.27-.27-.27ZM25.36,22.01h-1.46c-.15,0-.27.12-.27.27v1.02c0,.15.12.27.27.27h1.46c.15,0,.27-.12.27-.27v-1.02c0-.15-.12-.27-.27-.27ZM28.57,22.01h-1.46c-.15,0-.27.12-.27.27v1.02c0,.15.12.27.27.27h1.46c.15,0,.27-.12.27-.27v-1.02c0-.15-.12-.27-.27-.27ZM31.78,22.01h-1.46c-.15,0-.27.12-.27.27v1.02c0,.15.12.27.27.27h1.46c.15,0,.27-.12.27-.27v-1.02c0-.15-.12-.27-.27-.27ZM34.98,22.01h-1.46c-.15,0-.27.12-.27.27v1.02c0,.15.12.27.27.27h1.46c.15,0,.27-.12.27-.27v-1.02c0-.15-.12-.27-.27-.27ZM9.34,25.02h-1.46c-.15,0-.27.12-.27.27v1.02c0,.15.12.27.27.27h1.46c.15,0,.27-.12.27-.27v-1.02c0-.15-.12-.27-.27-.27ZM12.66,25.02h-1.46c-.15,0-.27.12-.27.27v1.02c0,.15.12.27.27.27h1.46c.15,0,.27-.12.27-.27v-1.02c0-.15-.12-.27-.27-.27ZM28.57,25.02h-1.46c-.15,0-.27.12-.27.27v1.02c0,.15.12.27.27.27h1.46c.15,0,.27-.12.27-.27v-1.02c0-.15-.12-.27-.27-.27ZM31.78,25.02h-1.46c-.15,0-.27.12-.27.27v1.02c0,.15.12.27.27.27h1.46c.15,0,.27-.12.27-.27v-1.02c0-.15-.12-.27-.27-.27ZM34.98,25.02h-1.46c-.15,0-.27.12-.27.27v1.02c0,.15.12.27.27.27h1.46c.15,0,.27-.12.27-.27v-1.02c0-.15-.12-.27-.27-.27ZM25.24,25.01h-10.8c-.15,0-.27.12-.27.27v.99c0,.15.12.27.27.27h10.8c.15,0,.27-.12.27-.27v-.99c0-.15-.12-.27-.27-.27ZM7.35,14.99h27.82c.51,0,.93.42.93.93v10.67c0,.51-.42.93-.93.93H7.35c-.52,0-.93-.42-.93-.93v-10.67c0-.52.42-.93.93-.93Z"/>
    </g>
  </g>
</svg>